<?xml version="1.0" encoding="UTF-8" standalone="no"?>
<!DOCTYPE svg PUBLIC "-//W3C//DTD SVG 1.1//EN" "http://www.w3.org/Graphics/SVG/1.1/DTD/svg11.dtd">
<svg width="100%" height="100%" viewBox="0 0 16 16" version="1.1" xmlns="http://www.w3.org/2000/svg" xmlns:xlink="http://www.w3.org/1999/xlink" xml:space="preserve" xmlns:serif="http://www.serif.com/" style="fill-rule:evenodd;clip-rule:evenodd;">
    <g transform="matrix(1,0,0,0.85714,3e-05,1.14289)">
        <path d="M14,2.867C14,1.836 13.283,1 12.4,1L3.6,1C2.717,1 2,1.836 2,2.867L2,13.133C2,14.164 2.717,15 3.6,15L12.4,15C13.283,15 14,14.164 14,13.133L14,2.867Z" style="fill:rgb(255,242,238);stroke:rgb(200,40,15);stroke-width:2.15px;"/>
    </g>
    <g transform="matrix(1.25,0,0,1.25,-8.88178e-16,1.25)">
        <circle cx="4" cy="3" r="0.8" style="fill:rgb(200,40,15);"/>
    </g>
    <g transform="matrix(0.892857,0,0,0.892857,-3.81233,7.48271)">
        <g>
            <path d="M10.698,1.163L10.73,0.667L10.418,0.923L8.978,1.811L8.978,0.755L10.698,-0.453L11.69,-0.453L11.69,4.987L10.698,4.987L10.698,1.163Z" style="fill:rgb(200,40,15);fill-rule:nonzero;"/>
            <path d="M15.474,5.059C15.052,5.059 14.73,5.029 14.506,4.967C14.282,4.906 14.104,4.786 13.974,4.607C13.843,4.429 13.732,4.155 13.642,3.787C13.54,3.355 13.49,2.843 13.49,2.251C13.49,1.638 13.546,1.123 13.658,0.707C13.748,0.355 13.856,0.093 13.982,-0.081C14.107,-0.254 14.283,-0.374 14.51,-0.441C14.736,-0.507 15.063,-0.541 15.49,-0.541C15.916,-0.541 16.242,-0.507 16.466,-0.441C16.69,-0.374 16.864,-0.255 16.99,-0.085C17.115,0.086 17.223,0.347 17.314,0.699C17.426,1.126 17.482,1.662 17.482,2.307C17.482,2.611 17.47,2.878 17.446,3.107C17.422,3.337 17.38,3.569 17.322,3.803C17.231,4.166 17.119,4.435 16.986,4.611C16.852,4.787 16.674,4.906 16.45,4.967C16.226,5.029 15.9,5.059 15.474,5.059ZM14.49,2.259C14.49,2.563 14.503,2.827 14.53,3.051L16.33,0.771C16.282,0.585 16.2,0.461 16.086,0.399C15.971,0.338 15.767,0.307 15.474,0.307C15.244,0.307 15.076,0.325 14.97,0.359C14.863,0.394 14.786,0.455 14.738,0.543C14.69,0.631 14.644,0.774 14.602,0.971C14.57,1.147 14.543,1.33 14.522,1.519C14.5,1.709 14.49,1.955 14.49,2.259ZM14.69,3.875C14.732,4.003 14.808,4.091 14.918,4.139C15.027,4.187 15.215,4.211 15.482,4.211C15.722,4.211 15.898,4.191 16.01,4.151C16.122,4.111 16.199,4.049 16.242,3.963C16.284,3.878 16.327,3.734 16.37,3.531C16.444,3.195 16.482,2.763 16.482,2.235C16.482,1.995 16.474,1.795 16.458,1.635L14.69,3.875Z" style="fill:rgb(200,40,15);fill-rule:nonzero;"/>
        </g>
    </g>
</svg>
