<?xml version="1.0" encoding="UTF-8" standalone="no"?>
<!DOCTYPE svg PUBLIC "-//W3C//DTD SVG 1.1//EN" "http://www.w3.org/Graphics/SVG/1.1/DTD/svg11.dtd">
<svg width="100%" height="100%" viewBox="0 0 128 128" version="1.1" xmlns="http://www.w3.org/2000/svg" xmlns:xlink="http://www.w3.org/1999/xlink" xml:space="preserve" xmlns:serif="http://www.serif.com/" style="fill-rule:evenodd;clip-rule:evenodd;">
    <path d="M100,36C100,31.585 96.415,28 92,28L36,28C31.585,28 28,31.585 28,36L28,92C28,96.415 31.585,100 36,100L92,100C96.415,100 100,96.415 100,92L100,36Z" style="fill:rgb(48,24,8);stroke:rgb(255,170,60);stroke-width:6px;"/>
    <g transform="matrix(1.33333,0,0,1.33333,-9,-9)">
        <circle cx="36" cy="36" r="3" style="fill:rgb(255,170,60);fill-opacity:0.5;"/>
    </g>
    <path d="M52,16C52,14.896 51.104,14 50,14L48,14C46.896,14 46,14.896 46,16L46,26C46,27.104 46.896,28 48,28L50,28C51.104,28 52,27.104 52,26L52,16Z" style="fill:rgb(255,170,60);"/>
    <path d="M67,16C67,14.896 66.104,14 65,14L63,14C61.896,14 61,14.896 61,16L61,26C61,27.104 61.896,28 63,28L65,28C66.104,28 67,27.104 67,26L67,16Z" style="fill:rgb(255,170,60);"/>
    <path d="M82,16C82,14.896 81.104,14 80,14L78,14C76.896,14 76,14.896 76,16L76,26C76,27.104 76.896,28 78,28L80,28C81.104,28 82,27.104 82,26L82,16Z" style="fill:rgb(255,170,60);"/>
    <path d="M52,102C52,100.896 51.104,100 50,100L48,100C46.896,100 46,100.896 46,102L46,112C46,113.104 46.896,114 48,114L50,114C51.104,114 52,113.104 52,112L52,102Z" style="fill:rgb(255,170,60);"/>
    <path d="M67,102C67,100.896 66.104,100 65,100L63,100C61.896,100 61,100.896 61,102L61,112C61,113.104 61.896,114 63,114L65,114C66.104,114 67,113.104 67,112L67,102Z" style="fill:rgb(255,170,60);"/>
    <path d="M82,102C82,100.896 81.104,100 80,100L78,100C76.896,100 76,100.896 76,102L76,112C76,113.104 76.896,114 78,114L80,114C81.104,114 82,113.104 82,112L82,102Z" style="fill:rgb(255,170,60);"/>
    <path d="M28,48C28,46.896 27.104,46 26,46L16,46C14.896,46 14,46.896 14,48L14,50C14,51.104 14.896,52 16,52L26,52C27.104,52 28,51.104 28,50L28,48Z" style="fill:rgb(255,170,60);"/>
    <path d="M28,63C28,61.896 27.104,61 26,61L16,61C14.896,61 14,61.896 14,63L14,65C14,66.104 14.896,67 16,67L26,67C27.104,67 28,66.104 28,65L28,63Z" style="fill:rgb(255,170,60);"/>
    <path d="M28,78C28,76.896 27.104,76 26,76L16,76C14.896,76 14,76.896 14,78L14,80C14,81.104 14.896,82 16,82L26,82C27.104,82 28,81.104 28,80L28,78Z" style="fill:rgb(255,170,60);"/>
    <path d="M114,48C114,46.896 113.104,46 112,46L102,46C100.896,46 100,46.896 100,48L100,50C100,51.104 100.896,52 102,52L112,52C113.104,52 114,51.104 114,50L114,48Z" style="fill:rgb(255,170,60);"/>
    <path d="M114,63C114,61.896 113.104,61 112,61L102,61C100.896,61 100,61.896 100,63L100,65C100,66.104 100.896,67 102,67L112,67C113.104,67 114,66.104 114,65L114,63Z" style="fill:rgb(255,170,60);"/>
    <path d="M114,78C114,76.896 113.104,76 112,76L102,76C100.896,76 100,76.896 100,78L100,80C100,81.104 100.896,82 102,82L112,82C113.104,82 114,81.104 114,80L114,78Z" style="fill:rgb(255,170,60);"/>
    <g transform="matrix(1,0,0,1,35.2,81.568)">
        <text x="0px" y="0px" style="font-family:'BerkeleyMono-Bold', 'Berkeley Mono';font-weight:700;font-size:48px;fill:rgb(255,170,60);">20</text>
    </g>
</svg>
