<?xml version="1.0" encoding="UTF-8" standalone="no"?>
<!DOCTYPE svg PUBLIC "-//W3C//DTD SVG 1.1//EN" "http://www.w3.org/Graphics/SVG/1.1/DTD/svg11.dtd">
<svg width="100%" height="100%" viewBox="0 0 16 16" version="1.1" xmlns="http://www.w3.org/2000/svg" xmlns:xlink="http://www.w3.org/1999/xlink" xml:space="preserve" xmlns:serif="http://www.serif.com/" style="fill-rule:evenodd;clip-rule:evenodd;">
    <g transform="matrix(1,0,0,0.85714,3e-05,1.14289)">
        <path d="M14,2.867C14,1.836 13.283,1 12.4,1L3.6,1C2.717,1 2,1.836 2,2.867L2,13.133C2,14.164 2.717,15 3.6,15L12.4,15C13.283,15 14,14.164 14,13.133L14,2.867Z" style="fill:rgb(48,24,8);stroke:rgb(255,170,60);stroke-width:1.84px;"/>
    </g>
    <g transform="matrix(1.25,0,0,1.25,-6.66134e-16,1.25)">
        <circle cx="4" cy="3" r="0.8" style="fill:rgb(255,170,60);"/>
    </g>
    <g transform="matrix(0.649351,0,0,0.649351,3.71621,11.9357)">
        <g>
            <path d="M0.737,-1.815C1.72,-2.563 2.446,-3.128 2.915,-3.509C3.384,-3.89 3.762,-4.224 4.048,-4.51C4.187,-4.657 4.283,-4.796 4.334,-4.928C4.385,-5.06 4.411,-5.229 4.411,-5.434C4.411,-5.691 4.376,-5.887 4.307,-6.023C4.237,-6.158 4.118,-6.255 3.949,-6.314C3.78,-6.373 3.542,-6.402 3.234,-6.402C2.926,-6.402 2.686,-6.371 2.514,-6.309C2.341,-6.246 2.215,-6.143 2.134,-6.001C2.053,-5.858 2.002,-5.654 1.98,-5.39L0.572,-5.39C0.601,-5.969 0.699,-6.415 0.864,-6.727C1.029,-7.038 1.296,-7.26 1.666,-7.392C2.037,-7.524 2.556,-7.59 3.223,-7.59C3.898,-7.59 4.417,-7.526 4.779,-7.398C5.143,-7.269 5.401,-7.049 5.555,-6.738C5.709,-6.426 5.786,-5.984 5.786,-5.412C5.786,-5.023 5.731,-4.704 5.621,-4.455C5.511,-4.206 5.302,-3.927 4.994,-3.619C4.605,-3.23 4.211,-2.875 3.811,-2.552C3.412,-2.229 2.86,-1.822 2.156,-1.331L2.156,-1.232L5.885,-1.232L5.885,0L0.737,0L0.737,-1.815Z" style="fill:rgb(255,170,60);fill-rule:nonzero;"/>
            <path d="M9.878,0.099C9.299,0.099 8.855,0.057 8.547,-0.028C8.239,-0.112 7.995,-0.277 7.816,-0.523C7.636,-0.768 7.484,-1.144 7.359,-1.65C7.22,-2.244 7.15,-2.948 7.15,-3.762C7.15,-4.605 7.227,-5.313 7.381,-5.885C7.506,-6.369 7.654,-6.73 7.826,-6.969C7.999,-7.207 8.241,-7.372 8.553,-7.464C8.864,-7.555 9.313,-7.601 9.9,-7.601C10.487,-7.601 10.934,-7.555 11.242,-7.464C11.55,-7.372 11.79,-7.209 11.962,-6.974C12.135,-6.739 12.283,-6.38 12.408,-5.896C12.562,-5.309 12.639,-4.572 12.639,-3.685C12.639,-3.267 12.622,-2.9 12.589,-2.585C12.557,-2.27 12.5,-1.951 12.419,-1.628C12.294,-1.129 12.14,-0.759 11.957,-0.517C11.774,-0.275 11.528,-0.112 11.22,-0.028C10.912,0.057 10.465,0.099 9.878,0.099ZM8.525,-3.751C8.525,-3.333 8.543,-2.97 8.58,-2.662L11.055,-5.797C10.989,-6.054 10.877,-6.224 10.72,-6.309C10.562,-6.393 10.281,-6.435 9.878,-6.435C9.563,-6.435 9.332,-6.411 9.185,-6.364C9.038,-6.316 8.932,-6.232 8.866,-6.111C8.8,-5.989 8.738,-5.793 8.679,-5.522C8.635,-5.28 8.598,-5.029 8.569,-4.768C8.54,-4.508 8.525,-4.169 8.525,-3.751ZM8.8,-1.529C8.859,-1.353 8.963,-1.232 9.114,-1.166C9.264,-1.1 9.522,-1.067 9.889,-1.067C10.219,-1.067 10.461,-1.095 10.615,-1.15C10.769,-1.204 10.875,-1.291 10.934,-1.408C10.993,-1.525 11.051,-1.723 11.11,-2.002C11.213,-2.464 11.264,-3.058 11.264,-3.784C11.264,-4.114 11.253,-4.389 11.231,-4.609L8.8,-1.529Z" style="fill:rgb(255,170,60);fill-rule:nonzero;"/>
        </g>
    </g>
</svg>
